<svg width="1440" height="481" viewBox="0 0 1440 481" fill="none" xmlns="http://www.w3.org/2000/svg">
<g clip-path="url(#clip0_212_16580)" filter="url(#filter0_f_212_16580)">
<path opacity="0.15" d="M1381.19 184.306C1414.7 205.714 1441.88 242.933 1391.8 269.209C1386.63 271.918 1338.18 296.496 1265.3 293.444C1176.54 289.727 1158.34 249.491 1060.38 239.045C954.298 227.734 892.037 266.006 840.231 254.249C778.971 240.347 771.451 165.368 882.331 133.232C1015.91 94.5188 1291.08 126.742 1381.19 184.306Z" fill="#EBC136"/>
<path opacity="0.15" d="M546.245 294.99C577.307 283.983 611.155 261.806 590.134 239.374C587.966 237.061 567.262 215.922 518.679 210.83C459.505 204.629 430.162 229.697 362.092 227.086C288.375 224.258 264.689 192.63 225.971 195.408C180.189 198.693 142.627 247.989 200.514 280.277C270.248 319.174 462.723 324.588 546.245 294.99Z" fill="#EBC136"/>
<path opacity="0.15" d="M728.575 232.797C713.187 220.623 697.464 197.201 710.947 175.636C712.337 173.412 725.519 153.124 751.878 149.914C783.983 146.006 797.013 172.138 833.481 172.152C872.973 172.167 888.817 141.532 909.122 145.792C933.131 150.83 948.044 201.443 913.945 231.422C872.865 267.536 769.953 265.531 728.575 232.797Z" fill="#EBC136"/>
<path opacity="0.15" d="M716.467 205.617C733.284 199.454 751.622 187.049 740.276 174.526C739.107 173.235 727.931 161.433 701.654 158.61C669.649 155.172 653.745 169.191 616.923 167.762C577.047 166.215 564.27 148.555 543.322 150.124C518.55 151.98 498.171 179.538 529.448 197.551C567.128 219.252 671.247 222.19 716.467 205.617Z" fill="#EBC136"/>
<path opacity="0.15" d="M1440.62 190.358C1458.76 180.939 1478.7 162.149 1466.95 143.504C1465.74 141.582 1454.14 124.017 1426.17 120.071C1392.09 115.265 1374.7 136.446 1335.42 134.704C1292.89 132.818 1279.75 106.491 1257.34 109.07C1230.83 112.119 1208.28 153.639 1241.15 180.296C1280.76 212.409 1391.86 215.685 1440.62 190.358Z" fill="#8047F8"/>
<path opacity="0.15" d="M1452.61 265.099C1466.71 271.42 1482.15 284.073 1472.84 296.712C1471.88 298.015 1462.7 309.923 1440.82 312.665C1414.16 316.005 1400.73 301.728 1370.03 303.01C1336.79 304.398 1326.35 322.235 1308.86 320.551C1288.17 318.558 1270.84 290.541 1296.71 272.429C1327.88 250.609 1414.69 248.101 1452.61 265.099Z" fill="#8047F8"/>
<path opacity="0.15" d="M253.937 126.015C266.507 138.554 278.932 162.473 266.695 184.082C265.433 186.309 253.5 206.631 231.055 209.485C203.717 212.961 193.675 186.34 162.792 185.785C129.347 185.183 114.765 215.928 97.732 211.318C77.5904 205.867 66.883 154.461 96.8998 124.652C133.06 88.7408 220.139 92.297 253.937 126.015Z" fill="#EBC136"/>
<path opacity="0.15" d="M895.507 296.899C869.621 285.805 844.462 263.556 870.926 241.246C873.654 238.946 899.434 217.924 946.6 213.016C1004.05 207.037 1024.11 232.156 1088.84 229.791C1158.94 227.23 1190.66 195.753 1226.2 198.662C1268.23 202.103 1288.76 251.427 1224.71 283.442C1147.55 322.009 965.112 326.73 895.507 296.899Z" fill="#EBC136"/>
<path opacity="0.15" d="M821.922 277.616C843.564 266.634 866.249 245.504 848.967 226.042C847.185 224.035 830.248 205.725 794.43 202.824C750.805 199.29 731.654 222.867 681.868 222.872C627.953 222.877 607.92 195.231 579.979 199.071C546.939 203.611 523.942 249.278 568.931 276.336C623.129 308.931 763.728 307.144 821.922 277.616Z" fill="#8047F8"/>
<path opacity="0.15" d="M869.472 128.388C910.019 134.542 953.079 145.97 922.336 155.663C919.167 156.663 888.993 165.767 823.11 166.487C742.863 167.364 706.181 154.747 614.369 153.658C514.943 152.48 479.601 166.347 427.852 163.751C366.66 160.681 321.602 136.551 403 123.532C501.058 107.849 760.444 111.841 869.472 128.388Z" fill="#8047F8"/>
<path opacity="0.15" d="M202.139 267.993C221.225 255.206 241.35 230.771 226.454 208.605C224.918 206.319 210.31 185.471 178.98 182.462C140.82 178.796 123.761 206.006 80.1632 206.453C32.9491 206.937 15.7442 175.409 -8.77095 180.061C-37.7595 185.562 -58.4579 238.139 -19.3915 268.77C27.6708 305.671 150.816 302.374 202.139 267.993Z" fill="#8047F8"/>
</g>
<defs>
<filter id="filter0_f_212_16580" x="-153" y="-113" width="1760" height="634" filterUnits="userSpaceOnUse" color-interpolation-filters="sRGB">
<feFlood flood-opacity="0" result="BackgroundImageFix"/>
<feBlend mode="normal" in="SourceGraphic" in2="BackgroundImageFix" result="shape"/>
<feGaussianBlur stdDeviation="80" result="effect1_foregroundBlur_212_16580"/>
</filter>
<clipPath id="clip0_212_16580">
<rect width="1440" height="314" fill="white" transform="translate(7 47)"/>
</clipPath>
</defs>
</svg>
