<svg width="32" height="32" viewBox="0 0 32 32" fill="none" xmlns="http://www.w3.org/2000/svg">
<path d="M25.7035 3.48137C25.4263 3.05991 25.0212 3.04781 24.5597 3.03401C24.5074 3.03245 24.4544 3.03087 24.4007 3.02866C24.3599 3.0268 24.3148 3.02752 24.2677 3.02827C24.0805 3.03125 23.8616 3.03474 23.7513 2.87862C23.6234 2.69761 23.6355 2.34782 23.6455 2.05905C23.6487 1.9678 23.6516 1.88259 23.6499 1.81078C23.6319 1.13997 23.5944 0.427388 23.3336 0.189174C23.1369 0.0104463 22.5484 0.0352067 22.0056 0.0580417C21.8297 0.0654442 21.6586 0.0726443 21.5072 0.0726443H9.95497C9.72237 0.0726443 9.47856 0.0538439 9.239 0.0353716C8.77221 -0.000622723 8.32156 -0.0353715 8.00155 0.0726443C7.53713 0.230172 7.50568 1.05795 7.47607 1.83742L7.47447 1.87936C7.44961 2.52284 7.28896 3.01938 6.75652 2.96937C6.13726 2.91213 5.52106 2.89409 5.24107 3.45043C4.9104 4.10869 4.9786 4.79773 5.10075 6.03192C5.1182 6.20822 5.13675 6.39564 5.15539 6.59568H25.8822C25.894 6.44947 25.9066 6.30513 25.919 6.16312C26.0161 5.05273 26.1007 4.08527 25.7035 3.48137Z" fill="#8047F8"/>
<path fill-rule="evenodd" clip-rule="evenodd" d="M6.76953 7.81975C7.09324 12.1687 7.41342 16.5227 7.7336 20.8768L7.7338 20.8794C7.90765 23.2435 8.0815 25.6076 8.25591 27.971H8.91725C8.96232 28.3409 9.01388 28.7976 9.06825 29.2792C9.17861 30.2566 9.30053 31.3364 9.40302 32H9.47617C10.1498 31.7553 14.8067 29.7794 14.8088 21.9129C14.8079 21.8904 14.8087 21.868 14.811 21.8458H13.6605C13.6048 21.8452 13.5508 21.8268 13.5069 21.7932C13.4629 21.7597 13.4314 21.7129 13.4172 21.66C13.305 21.3851 13.2146 21.1021 13.1468 20.8136C12.4699 21.193 11.9324 21.7725 11.6109 22.4693C11.3057 21.7556 11.2657 20.9594 11.498 20.2198C11.7303 19.4802 12.2201 18.8442 12.8818 18.4229C12.8903 16.1274 13.7561 13.9147 15.3153 12.2034L15.3397 12.1822C15.385 12.1433 15.443 12.1217 15.5032 12.1212C15.538 12.1215 15.5723 12.1289 15.6041 12.1429C15.6362 12.157 15.665 12.1777 15.6885 12.2034C17.2659 13.917 18.1272 16.151 18.1004 18.4601C18.7744 18.8696 19.2742 19.5051 19.5069 20.2488C19.7396 20.9924 19.6895 21.7936 19.3659 22.5038C19.0461 21.8059 18.5081 21.226 17.83 20.8481C17.7886 21.1277 17.7123 21.4013 17.6029 21.6627C17.565 21.7741 17.4893 21.8458 17.4136 21.8458H16.1866C16.1886 21.8591 16.19 21.8725 16.1907 21.886L16.1912 21.889V21.8955C16.1916 21.9071 16.1917 21.9187 16.1912 21.9303C16.208 30.0227 21.1593 31.8595 21.5767 32H21.7194C21.7559 31.3626 21.8745 30.4831 21.9902 29.6257C22.0699 29.0348 22.1482 28.4544 22.1972 27.971H22.8662C23.0803 24.9941 23.3005 22.0255 23.5208 19.0569L23.5209 19.0553L23.5209 19.0545C23.8027 15.2573 24.0844 11.46 24.3533 7.64496H6.81237C6.76188 7.65475 6.76532 7.73674 6.76953 7.81975ZM15.5032 12.1212L15.5019 12.1212H15.5046L15.5032 12.1212Z" fill="#8047F8"/>
</svg>
